<?xml version="1.0" encoding="utf-8"?>
<!-- Generator: Adobe Illustrator 27.0.1, SVG Export Plug-In . SVG Version: 6.00 Build 0)  -->
<svg version="1.1" id="Layer_1" xmlns="http://www.w3.org/2000/svg" xmlns:xlink="http://www.w3.org/1999/xlink" x="0px" y="0px"
	 viewBox="0 0 800 201.3" width="800" height="201" xml:space="preserve">
<style type="text/css">
	.st0{opacity:0.67;fill:url(#SVGID_1_);enable-background:new    ;}
	.st1{opacity:0.67;fill:url(#SVGID_00000046320744607557454310000000667369308165448888_);enable-background:new    ;}
	.st2{opacity:0.67;fill:url(#SVGID_00000094602872129838351160000008494011687021577633_);enable-background:new    ;}
	.st3{opacity:0.67;fill:url(#SVGID_00000085965852762072142580000015694559895639507333_);enable-background:new    ;}
	.st4{opacity:0.67;fill:url(#SVGID_00000046331109663724029880000000580886897523673231_);enable-background:new    ;}
	.st5{opacity:0.67;fill:url(#SVGID_00000178912967642221754640000007038250651679725201_);enable-background:new    ;}
	.st6{fill:url(#SVGID_00000059270989835511306630000010875977094114874814_);}
	.st7{fill:#FFFFFF;}
	.st8{fill:#39393C;}
	.st9{fill:url(#SVGID_00000070828520894241756380000010340042769575182517_);}
</style>
<linearGradient id="SVGID_1_" gradientUnits="userSpaceOnUse" x1="-946.9747" y1="-330.9057" x2="-946.9747" y2="-331.0268" gradientTransform="matrix(18.1554 0 0 18.1554 17239.4375 6202.9385)">
	<stop  offset="0" style="stop-color:#FFFFFF"/>
	<stop  offset="0.17" style="stop-color:#F8F8F5"/>
	<stop  offset="0.427" style="stop-color:#B1B1AC"/>
	<stop  offset="0.435" style="stop-color:#ADAEA8"/>
	<stop  offset="0.534" style="stop-color:#898984"/>
	<stop  offset="0.633" style="stop-color:#6C6C67"/>
	<stop  offset="0.731" style="stop-color:#53534E"/>
	<stop  offset="0.825" style="stop-color:#3E3E3A"/>
	<stop  offset="0.916" style="stop-color:#252523"/>
	<stop  offset="1" style="stop-color:#1B1A19"/>
</linearGradient>
<path class="st0" d="M45.3,193.6c0,0.4,0.1,0.7,0.3,1c0.2,0.3,0.4,0.4,0.8,0.4c0.3,0,0.5-0.1,0.9-0.2c0.3-0.2,0.6-0.4,0.9-0.7v-2.9
	c-1.1,0.2-1.8,0.4-2.3,0.8C45.5,192.5,45.3,193,45.3,193.6z"/>
<linearGradient id="SVGID_00000011747048216860257290000008882426306594895799_" gradientUnits="userSpaceOnUse" x1="-943.9557" y1="-331.3618" x2="-943.9557" y2="-331.4107" gradientTransform="matrix(18.1554 0 0 18.1554 17239.4375 6202.9385)">
	<stop  offset="0" style="stop-color:#FFFFFF"/>
	<stop  offset="0.17" style="stop-color:#F8F8F5"/>
	<stop  offset="0.427" style="stop-color:#B1B1AC"/>
	<stop  offset="0.435" style="stop-color:#ADAEA8"/>
	<stop  offset="0.534" style="stop-color:#898984"/>
	<stop  offset="0.633" style="stop-color:#6C6C67"/>
	<stop  offset="0.731" style="stop-color:#53534E"/>
	<stop  offset="0.825" style="stop-color:#3E3E3A"/>
	<stop  offset="0.916" style="stop-color:#252523"/>
	<stop  offset="1" style="stop-color:#1B1A19"/>
</linearGradient>
<path style="opacity:0.67;fill:url(#SVGID_00000011747048216860257290000008882426306594895799_);enable-background:new    ;" d="
	M100.6,185.3h1.8v1.5h-1.8V185.3z"/>
<linearGradient id="SVGID_00000173875841628364503790000009391927688549801600_" gradientUnits="userSpaceOnUse" x1="-943.9557" y1="-331.2578" x2="-943.9557" y2="-331.3088" gradientTransform="matrix(18.1554 0 0 18.1554 17239.4375 6202.9385)">
	<stop  offset="0" style="stop-color:#FFFFFF"/>
	<stop  offset="0.17" style="stop-color:#F8F8F5"/>
	<stop  offset="0.427" style="stop-color:#B1B1AC"/>
	<stop  offset="0.435" style="stop-color:#ADAEA8"/>
	<stop  offset="0.534" style="stop-color:#898984"/>
	<stop  offset="0.633" style="stop-color:#6C6C67"/>
	<stop  offset="0.731" style="stop-color:#53534E"/>
	<stop  offset="0.825" style="stop-color:#3E3E3A"/>
	<stop  offset="0.916" style="stop-color:#252523"/>
	<stop  offset="1" style="stop-color:#1B1A19"/>
</linearGradient>
<path style="opacity:0.67;fill:url(#SVGID_00000173875841628364503790000009391927688549801600_);enable-background:new    ;" d="
	M100.6,187.1h1.8v1.6h-1.8V187.1z"/>
<linearGradient id="SVGID_00000137849974954315230880000008270327618995104159_" gradientUnits="userSpaceOnUse" x1="-945.9617" y1="-330.9057" x2="-945.9617" y2="-331.0268" gradientTransform="matrix(18.1554 0 0 18.1554 17239.4375 6202.9385)">
	<stop  offset="0" style="stop-color:#FFFFFF"/>
	<stop  offset="0.17" style="stop-color:#F8F8F5"/>
	<stop  offset="0.427" style="stop-color:#B1B1AC"/>
	<stop  offset="0.435" style="stop-color:#ADAEA8"/>
	<stop  offset="0.534" style="stop-color:#898984"/>
	<stop  offset="0.633" style="stop-color:#6C6C67"/>
	<stop  offset="0.731" style="stop-color:#53534E"/>
	<stop  offset="0.825" style="stop-color:#3E3E3A"/>
	<stop  offset="0.916" style="stop-color:#252523"/>
	<stop  offset="1" style="stop-color:#1B1A19"/>
</linearGradient>
<path style="opacity:0.67;fill:url(#SVGID_00000137849974954315230880000008270327618995104159_);enable-background:new    ;" d="
	M63.7,193.6c0,0.4,0.1,0.7,0.3,1c0.2,0.3,0.4,0.4,0.8,0.4c0.3,0,0.6-0.1,0.9-0.2s0.6-0.4,0.9-0.7v-2.9c-1.1,0.2-1.8,0.4-2.3,0.8
	C63.9,192.5,63.7,193,63.7,193.6z"/>
<linearGradient id="SVGID_00000167381470135022842240000005901845177995266213_" gradientUnits="userSpaceOnUse" x1="-943.4302" y1="-331.1638" x2="-943.4302" y2="-331.2408" gradientTransform="matrix(18.1554 0 0 18.1554 17239.4375 6202.9385)">
	<stop  offset="0" style="stop-color:#FFFFFF"/>
	<stop  offset="0.17" style="stop-color:#F8F8F5"/>
	<stop  offset="0.427" style="stop-color:#B1B1AC"/>
	<stop  offset="0.435" style="stop-color:#ADAEA8"/>
	<stop  offset="0.534" style="stop-color:#898984"/>
	<stop  offset="0.633" style="stop-color:#6C6C67"/>
	<stop  offset="0.731" style="stop-color:#53534E"/>
	<stop  offset="0.825" style="stop-color:#3E3E3A"/>
	<stop  offset="0.916" style="stop-color:#252523"/>
	<stop  offset="1" style="stop-color:#1B1A19"/>
</linearGradient>
<path style="opacity:0.67;fill:url(#SVGID_00000167381470135022842240000005901845177995266213_);enable-background:new    ;" d="
	M108.6,188h5v2.4h-5V188z"/>
<linearGradient id="SVGID_00000153666227419180328120000017246319109016968587_" gradientUnits="userSpaceOnUse" x1="-943.4302" y1="-331.3138" x2="-943.4302" y2="-331.3828" gradientTransform="matrix(18.1554 0 0 18.1554 17239.4375 6202.9385)">
	<stop  offset="0" style="stop-color:#FFFFFF"/>
	<stop  offset="0.17" style="stop-color:#F8F8F5"/>
	<stop  offset="0.427" style="stop-color:#B1B1AC"/>
	<stop  offset="0.435" style="stop-color:#ADAEA8"/>
	<stop  offset="0.534" style="stop-color:#898984"/>
	<stop  offset="0.633" style="stop-color:#6C6C67"/>
	<stop  offset="0.731" style="stop-color:#53534E"/>
	<stop  offset="0.825" style="stop-color:#3E3E3A"/>
	<stop  offset="0.916" style="stop-color:#252523"/>
	<stop  offset="1" style="stop-color:#1B1A19"/>
</linearGradient>
<path style="opacity:0.67;fill:url(#SVGID_00000153666227419180328120000017246319109016968587_);enable-background:new    ;" d="
	M108.6,185.5h5v2.1h-5V185.5z"/>
<path d="M786.9,1.3c9.2,31.4,13.1,64.1,13.1,98c0,35.3-5.2,69.3-13.1,102H14.4V200h771.2c9.2-32.7,13.1-66.7,13.1-102
	C798.7,64.1,794.8,31.4,786.9,1.3L786.9,1.3z"/>
<radialGradient id="SVGID_00000112601620808376600830000006224265743863600045_" cx="-947.5542" cy="-340.4007" r="27.789" gradientTransform="matrix(18.1554 0 0 18.1554 17239.4375 6202.9385)" gradientUnits="userSpaceOnUse">
	<stop  offset="0" style="stop-color:#1E71B8"/>
	<stop  offset="8.199999e-02" style="stop-color:#1C69AB"/>
	<stop  offset="0.166" style="stop-color:#1B64A4"/>
	<stop  offset="0.242" style="stop-color:#1A63A1"/>
	<stop  offset="0.392" style="stop-color:#185D98"/>
	<stop  offset="0.685" style="stop-color:#0F4D80"/>
	<stop  offset="0.837" style="stop-color:#004472"/>
	<stop  offset="0.933" style="stop-color:#014472"/>
	<stop  offset="0.968" style="stop-color:#064271"/>
	<stop  offset="0.993" style="stop-color:#0D3F6F"/>
	<stop  offset="1" style="stop-color:#0F3D6E"/>
</radialGradient>
<path style="fill:url(#SVGID_00000112601620808376600830000006224265743863600045_);" d="M13.1,0h773.9c7.8,31.4,11.7,64,11.7,98
	c0,35.3-3.9,69.3-13.1,102H14.4C4.9,166.8,0.1,132.5,0,98C0,64.1,5.2,31.4,13.1,0z"/>
<g>
	<path class="st7" d="M679.7,148.3c-34.9,0-63.3-21.4-63.3-47.6c0-26.3,28.4-47.6,63.3-47.6c35.6,0,64.6,21.4,64.6,47.6
		S715.4,148.3,679.7,148.3z M679.7,67.2c-12.5,0-21.7,14.1-21.7,33.5c0,18.3,9.3,32.1,21.7,32.1c11.7,0,21.7-14.7,21.7-32.1
		C701.4,82.2,691.7,67.2,679.7,67.2z M282.4,148.3c-34.9,0-63.3-21.4-63.3-47.6c0-25.1,29-46.3,63.3-46.3
		c35.6,0,64.6,20.8,64.6,46.3C346.9,126.9,318,148.3,282.4,148.3z M282.4,68.5c-12.4,0-21.7,13.8-21.7,32.2
		c0,18.3,9.3,32.1,21.7,32.1c11.7,0,21.7-14.7,21.7-32.1S294.1,68.5,282.4,68.5L282.4,68.5z M515,145.6l-41-76.1l-20.4,0.3
		l-0.5-12.3l89.4-0.5l0.5,12.3l-22.8,0.5l31.8,52.8l26.5-53.6l-15.2,0.8l-0.5-12.3l62-0.5l0.5,12.3l-21.5,0.5l-40.2,75.8L515,145.6
		L515,145.6z M351.6,145.6l-0.5-14.9l21.5-0.5L372,69.3l-20.4,0.5l-0.5-12.3L434,57l0.5,12.3l-21.5,0.5l0.5,60.9l21.7-0.5
		c7,0,25.6-4.6,26.9-25.6l13.6-0.5l0.5,41.6L351.6,145.6L351.6,145.6z M117.6,145.6l-41-76.1l-20.4,0.3l-0.5-12.3l89.4-0.5l0.5,12.3
		l-22.8,0.5l31.8,52.8l27.8-53.6L166,69.9l-0.5-12.3l62-0.5l0.5,12.3l-21.5,0.5l-40.2,75.8L117.6,145.6L117.6,145.6z"/>
	<path class="st8" d="M679.7,53.6c35.3,0,64.1,20.9,64.1,47.1c0,26.1-28.8,47.1-64.1,47.1c-34,0-62.7-20.9-62.7-47.1
		C617,74.5,645.8,53.6,679.7,53.6 M679.7,133.3c11.7,0,22.2-14.4,22.2-32.7c0-19.6-10.5-34-22.2-34c-13.1,0-22.2,14.4-22.2,34
		C657.5,119,666.7,133.3,679.7,133.3 M282.4,54.9c35.3,0,64,20.9,64,45.8c0,26.1-28.8,47.1-64,47.1c-34,0-62.7-20.9-62.7-47.1
		C219.6,75.8,248.4,54.9,282.4,54.9 M282.4,133.3c11.7,0,22.2-14.4,22.2-32.7c0-18.3-10.5-32.7-22.2-32.7
		c-13.1,0-22.2,14.4-22.2,32.7C260.1,119,269.3,133.3,282.4,133.3 M624.8,57.5v11.7h-20.9l-40.5,75.8h-48.4l-40.5-75.8h-20.9V57.5
		h88.9v11.7h-22.2l31.4,53.6l27.5-53.6h-15.7V57.5H624.8 M434,57.5v11.7h-20.9v61.4h22.2c7.8,0,26.1-5.2,27.5-26.1h13.1v40.5H351.6
		v-14.4h20.9V69.3h-20.9V57.5H434 M227.5,57.5v11.7h-20.9L166,145.1h-48.4L77.1,69.3H56.2V57.5h88.9v11.7h-22.2l31.4,53.6L183,69.3
		h-17V57.5H227.5 M679.7,52.5c-35.2,0-63.9,21.6-63.9,48.1c0,26.5,28.6,48.1,63.9,48.1c35.9,0,65.1-21.6,65.1-48.1
		C744.9,74.1,715.7,52.5,679.7,52.5z M679.7,132.2c-12.1,0-21.1-13.6-21.1-31.6c0-19.1,8.9-32.9,21.1-32.9
		c11.7,0,21.1,14.8,21.1,32.9C700.9,117.8,691.2,132.2,679.7,132.2z M282.4,53.8c-34.6,0-63.9,21.5-63.9,46.8
		c0,26.5,28.6,48.1,63.9,48.1c35.9,0,65.1-21.6,65.1-48.1C347.5,74.8,318.3,53.8,282.4,53.8L282.4,53.8z M282.4,132.2
		c-12.1,0-21.1-13.6-21.1-31.6c0-18,9.1-31.6,21.1-31.6c11.5,0,21.1,14.5,21.1,31.6C303.5,117.8,293.8,132.2,282.4,132.2z
		 M625.9,56.4h-63.6v14h15l-25.7,50.2l-29.4-50.3h21.4v-14h-91.1v14h21.3l40.2,75.2l0.3,0.6h49.7l0.3-0.6l40.2-75.2h21.4L625.9,56.4
		L625.9,56.4L625.9,56.4z M435.1,56.4h-84.5v14h20.9v59.3h-20.9v16.6h126.4v-42.7h-15.2l-0.1,1c-1.3,20.6-19.5,25.1-26.4,25.1h-21.1
		V70.4h20.9V56.4L435.1,56.4z M228.5,56.4h-63.6v14h16.3l-27,50.3l-29.4-50.3h21.4v-14H55.1v14h21.4l40.2,75.2l0.3,0.6h49.7l0.3-0.6
		l40.2-75.2h21.4V56.4L228.5,56.4z"/>
</g>
<linearGradient id="SVGID_00000049921782966252713010000002491855804919716783_" gradientUnits="userSpaceOnUse" x1="-943.663" y1="-345.0251" x2="-937.162" y2="-336.2321" gradientTransform="matrix(18.1554 0 0 18.1554 17239.4375 6202.9385)">
	<stop  offset="0" style="stop-color:#FFFFFF"/>
	<stop  offset="0.109" style="stop-color:#D5DDF0"/>
	<stop  offset="0.338" style="stop-color:#94ADD9"/>
	<stop  offset="0.542" style="stop-color:#668FC9"/>
	<stop  offset="0.714" style="stop-color:#447DBF"/>
	<stop  offset="0.848" style="stop-color:#2A74BA"/>
	<stop  offset="0.927" style="stop-color:#1E71B8"/>
	<stop  offset="0.947" style="stop-color:#4079BC"/>
	<stop  offset="0.967" style="stop-color:#5580C0"/>
	<stop  offset="0.985" style="stop-color:#6085C2"/>
	<stop  offset="1" style="stop-color:#6486C3"/>
</linearGradient>
<path style="fill:url(#SVGID_00000049921782966252713010000002491855804919716783_);" d="M14.5,1.5c-7.8,31.4-13.1,64-13.1,98
	c0,2.8,1,19.5,1.1,22.3l2.3,25.3c0-2-1.1-43.2-1.1-45.2c0-34,5.7-65.5,13.5-96.9L291,3.8l118.2-2.3L14.5,1.5L14.5,1.5z"/>
</svg>
